<svg width="256" height="256" viewBox="0 0 256 256" fill="none" xmlns="http://www.w3.org/2000/svg">
<rect width="256" height="256" fill="white"/>
<path d="M187.671 108.443C181.856 97.4742 170.491 90.7344 158.201 90.7344H64.505C62.787 90.7344 61.3333 92.1881 61.3333 94.0382C61.3333 94.8311 61.7298 95.6241 62.2584 96.2848L82.6098 116.769C84.4599 118.619 86.8386 119.676 89.3495 119.544H155.293C160.051 119.544 163.883 123.244 163.883 128.002C163.883 132.759 160.183 136.592 155.425 136.592H110.097C108.379 136.592 106.926 138.045 106.926 139.895C106.926 140.688 107.322 141.481 107.851 142.142L128.202 162.626C130.052 164.476 132.431 165.401 135.074 165.401H155.69C182.384 165.401 202.604 136.856 187.671 108.443Z" fill="#EB1700"/>
</svg>
